<mxfile host="app.diagrams.net" modified="2023-05-26T04:53:19.205Z" agent="Mozilla/5.0 (Windows NT 10.0; Win64; x64) AppleWebKit/537.36 (KHTML, like Gecko) Chrome/113.0.0.0 Safari/537.36" etag="i8eUzpsfstPpi8rW7ANq" version="21.3.2" type="device">
  <diagram name="페이지-1" id="Uhj4Dp_pnLkbFxUje3SN">
    <mxGraphModel dx="593" dy="648" grid="1" gridSize="10" guides="1" tooltips="1" connect="1" arrows="1" fold="1" page="1" pageScale="1" pageWidth="4681" pageHeight="3300" math="0" shadow="0">
      <root>
        <mxCell id="0" />
        <mxCell id="1" parent="0" />
        <mxCell id="GlKbgGLA3idpztzGceNg-7" style="rounded=0;orthogonalLoop=1;jettySize=auto;html=1;exitX=0.5;exitY=1;exitDx=0;exitDy=0;" edge="1" parent="1" source="GlKbgGLA3idpztzGceNg-1" target="GlKbgGLA3idpztzGceNg-3">
          <mxGeometry relative="1" as="geometry" />
        </mxCell>
        <mxCell id="GlKbgGLA3idpztzGceNg-8" style="edgeStyle=none;shape=connector;rounded=0;orthogonalLoop=1;jettySize=auto;html=1;entryX=0.5;entryY=0;entryDx=0;entryDy=0;labelBackgroundColor=default;strokeColor=default;fontFamily=Helvetica;fontSize=11;fontColor=default;endArrow=classic;exitX=0.5;exitY=1;exitDx=0;exitDy=0;" edge="1" parent="1" source="GlKbgGLA3idpztzGceNg-1" target="GlKbgGLA3idpztzGceNg-2">
          <mxGeometry relative="1" as="geometry" />
        </mxCell>
        <mxCell id="GlKbgGLA3idpztzGceNg-9" style="edgeStyle=none;shape=connector;rounded=0;orthogonalLoop=1;jettySize=auto;html=1;entryX=0.5;entryY=0;entryDx=0;entryDy=0;labelBackgroundColor=default;strokeColor=default;fontFamily=Helvetica;fontSize=11;fontColor=default;endArrow=classic;" edge="1" parent="1" source="GlKbgGLA3idpztzGceNg-1" target="GlKbgGLA3idpztzGceNg-4">
          <mxGeometry relative="1" as="geometry" />
        </mxCell>
        <mxCell id="GlKbgGLA3idpztzGceNg-10" style="edgeStyle=none;shape=connector;rounded=0;orthogonalLoop=1;jettySize=auto;html=1;entryX=0.5;entryY=0;entryDx=0;entryDy=0;labelBackgroundColor=default;strokeColor=default;fontFamily=Helvetica;fontSize=11;fontColor=default;endArrow=classic;exitX=0.5;exitY=1;exitDx=0;exitDy=0;" edge="1" parent="1" source="GlKbgGLA3idpztzGceNg-1" target="GlKbgGLA3idpztzGceNg-5">
          <mxGeometry relative="1" as="geometry" />
        </mxCell>
        <mxCell id="GlKbgGLA3idpztzGceNg-11" style="edgeStyle=none;shape=connector;rounded=0;orthogonalLoop=1;jettySize=auto;html=1;entryX=0.5;entryY=0;entryDx=0;entryDy=0;labelBackgroundColor=default;strokeColor=default;fontFamily=Helvetica;fontSize=11;fontColor=default;endArrow=classic;exitX=0.5;exitY=1;exitDx=0;exitDy=0;" edge="1" parent="1" source="GlKbgGLA3idpztzGceNg-1" target="GlKbgGLA3idpztzGceNg-6">
          <mxGeometry relative="1" as="geometry" />
        </mxCell>
        <mxCell id="GlKbgGLA3idpztzGceNg-1" value="메모장" style="whiteSpace=wrap;html=1;align=center;" vertex="1" parent="1">
          <mxGeometry x="240" y="120" width="100" height="40" as="geometry" />
        </mxCell>
        <mxCell id="GlKbgGLA3idpztzGceNg-2" value="작성자" style="ellipse;whiteSpace=wrap;html=1;align=center;" vertex="1" parent="1">
          <mxGeometry x="130" y="230" width="100" height="40" as="geometry" />
        </mxCell>
        <mxCell id="GlKbgGLA3idpztzGceNg-3" value="일련번호" style="ellipse;whiteSpace=wrap;html=1;align=center;fontStyle=4;" vertex="1" parent="1">
          <mxGeometry x="20" y="230" width="100" height="40" as="geometry" />
        </mxCell>
        <mxCell id="GlKbgGLA3idpztzGceNg-4" value="작성일자" style="ellipse;whiteSpace=wrap;html=1;align=center;" vertex="1" parent="1">
          <mxGeometry x="240" y="230" width="100" height="40" as="geometry" />
        </mxCell>
        <mxCell id="GlKbgGLA3idpztzGceNg-5" value="제목" style="ellipse;whiteSpace=wrap;html=1;align=center;" vertex="1" parent="1">
          <mxGeometry x="350" y="230" width="100" height="40" as="geometry" />
        </mxCell>
        <mxCell id="GlKbgGLA3idpztzGceNg-6" value="내용" style="ellipse;whiteSpace=wrap;html=1;align=center;" vertex="1" parent="1">
          <mxGeometry x="460" y="230" width="100" height="40" as="geometry" />
        </mxCell>
      </root>
    </mxGraphModel>
  </diagram>
</mxfile>
